<svg xmlns="http://www.w3.org/2000/svg" width="36" height="50" viewBox="0 0 36 50">
    <g fill="none" fill-rule="evenodd">
        <path fill="#D72127" fill-rule="nonzero" d="M15.901 6.506c.494-1.614.862-2.747 1.106-3.398.242-.65.632-1.273 1.17-1.865.328-.388.753-.693 1.274-.913A4.11 4.11 0 0 1 21.062 0c.885 0 1.664.28 2.34.838.728.557 1.092 1.335 1.092 2.332 0 .914-.294 1.708-.884 2.385-.59.694-1.443 1.379-2.56 2.054a131.69 131.69 0 0 0-3.212 2.004c-1.022.66-2.227 1.556-3.614 2.689l-.571-.457c1.005-1.944 1.755-3.724 2.248-5.339"/>
        <path fill="#D81F26" d="M12.735 44.732c-.122-.25-.286-.605-.313-.887-.138-1.437-.086-2.924-.032-4.416.046-1.265.081-2.596.923-3.627 1.46-1.799 3.628-2.878 5.639-3.943.314-.166.781-.336 1.173-.561v2.509c0 2.444.134 4.914-.964 7.204-.491 1.024-1.088 1.794-1.9 2.59-.424.415-.768.716-1.38 1.07-.505.292-.944.471-1.512.585-.485.098-.972.165-1.335-.171-.095-.088-.244-.239-.3-.353m23.003 2.239a2.43 2.43 0 0 1-2.352-.484c-.823-.74-.762-1.713-.762-2.717V25.418c0-1.944-.616-3.137-1.26-4.264a10.85 10.85 0 0 0-3.087-3.388c-2.54-1.826-5.619-2.56-8.689-2.873-3.105-.317-6.274-.332-9.333.351a20.08 20.08 0 0 0-1.1.277c-4.051 1.143-7.543 4.379-7.168 8.882.268 3.226 3.593 5.281 6.656 4.993 3.289-.31 6.387-3.28 5.084-6.708-.269-.707-.519-1.277-1.304-2.046-.506-.495-.949-.827-1.433-1.239-.48-.407 1.261-1.269 1.638-1.382 3.422-1.024 7.498.201 7.498 3.788v4.183c0 .882-.296 1.597-.944 2.224-1.954 1.894-4.801 2.183-7.328 2.758-4.25.968-8.965 2.308-10.992 6.56-1.373 2.88-1.129 6.572.914 9.08 1.588 1.95 4.015 2.893 6.466 3.16 2.466.27 5.044.157 7.32-.905a10.855 10.855 0 0 0 2.823-1.912c.879-.826 1.495-1.787 2.145-2.788-.005.008.266.445.287.489.137.277.262.557.417.825 1.202 2.083 3.295 3.43 5.584 4.068 2.182.61 4.44.63 6.593-.137 1.087-.387 2.111-1.234 2.327-2.443"/>
    </g>
</svg>
